<?xml version="1.0" encoding="UTF-8" standalone="no"?>
<!-- Created with Inkscape (http://www.inkscape.org/) -->

<svg
   xmlns:dc="http://purl.org/dc/elements/1.1/"
   xmlns:cc="http://creativecommons.org/ns#"
   xmlns:rdf="http://www.w3.org/1999/02/22-rdf-syntax-ns#"
   xmlns:svg="http://www.w3.org/2000/svg"
   xmlns="http://www.w3.org/2000/svg"
   xmlns:sodipodi="http://sodipodi.sourceforge.net/DTD/sodipodi-0.dtd"
   xmlns:inkscape="http://www.inkscape.org/namespaces/inkscape"
   width="210mm"
   height="297mm"
   viewBox="0 0 210 297"
   version="1.1"
   id="svg5248"
   inkscape:version="0.92.0 r15299"
   sodipodi:docname="Logo-w-drop.svg">
  <defs
     id="defs5242">
    <filter
       inkscape:collect="always"
       style="color-interpolation-filters:sRGB"
       id="filter5833"
       x="-0.09750317"
       width="1.1950063"
       y="-0.057887573"
       height="1.1157751">
      <feGaussianBlur
         inkscape:collect="always"
         stdDeviation="0.53388126"
         id="feGaussianBlur5835" />
    </filter>
    <filter
       inkscape:collect="always"
       style="color-interpolation-filters:sRGB"
       id="filter5837"
       x="-0.013277087"
       width="1.0265542"
       y="-0.092415055"
       height="1.1848301">
      <feGaussianBlur
         inkscape:collect="always"
         stdDeviation="2.017819"
         id="feGaussianBlur5839" />
    </filter>
  </defs>
  <sodipodi:namedview
     id="base"
     pagecolor="#ffffff"
     bordercolor="#666666"
     borderopacity="1.0"
     inkscape:pageopacity="0.0"
     inkscape:pageshadow="2"
     inkscape:zoom="1.979899"
     inkscape:cx="159.35069"
     inkscape:cy="1037.7177"
     inkscape:document-units="mm"
     inkscape:current-layer="layer1"
     showgrid="false"
     inkscape:window-width="1440"
     inkscape:window-height="837"
     inkscape:window-x="1672"
     inkscape:window-y="144"
     inkscape:window-maximized="1" />
  <metadata
     id="metadata5245">
    <rdf:RDF>
      <cc:Work
         rdf:about="">
        <dc:format>image/svg+xml</dc:format>
        <dc:type
           rdf:resource="http://purl.org/dc/dcmitype/StillImage" />
        <dc:title></dc:title>
      </cc:Work>
    </rdf:RDF>
  </metadata>
  <g
     inkscape:label="Layer 1"
     inkscape:groupmode="layer"
     id="layer1">
    <path
       inkscape:export-filename="C:\Users\avdow\Desktop\Stream Ovelays\Harps\discordicon.png"
       style="opacity:1;fill:#000000;fill-opacity:0.66850829;stroke:none;stroke-width:0.19377835;stroke-linecap:round;stroke-linejoin:miter;stroke-miterlimit:4;stroke-dasharray:none;stroke-opacity:1;filter:url(#filter5833)"
       d="m 11.875207,5.47648 c 1.330327,0.0734 3.862022,2.0705 4.79177,3.78462 1.358227,2.50786 3.417243,3.13552 4.590997,2.82116 1.192546,-0.31942 3.255142,-1.25223 3.082006,0.59025 -0.792103,1.42302 -8.420338,14.93643 -8.420338,14.93643 0,0 -0.571239,-0.33736 -0.658439,-0.62752 -0.178654,-0.59448 0.417359,-1.8148 0.417359,-1.8148 0,0 -2.271339,-4.49844 -3.25302,-9.19819 C 11.811987,13.03106 12.03769,10.26936 12.135873,7.99254 12.192263,6.68491 10.902517,5.98717 11.277415,5.64766 11.423568,5.5153 11.628856,5.46289 11.875207,5.47648 Z m 2.177221,4.45765 c -0.02161,1.14491 -0.312957,4.4731 -0.05951,6.22203 0.499231,3.44493 2.670348,6.3736 3.151315,6.61705 0.286148,-0.4862 5.328697,-8.90073 5.990372,-9.97166 -0.04433,-0.35721 -1.633895,0.7646 -3.529886,0.79116 -1.89599,0.0266 -4.681631,-2.98008 -5.552287,-3.65858 z"
       id="path5807"
       inkscape:connector-curvature="0"
       inkscape:export-xdpi="300"
       inkscape:export-ydpi="300" />
    <flowRoot
       inkscape:export-ydpi="300"
       inkscape:export-xdpi="300"
       xml:space="preserve"
       id="flowRoot5815"
       style="font-style:normal;font-weight:normal;font-size:40px;line-height:25px;font-family:sans-serif;letter-spacing:0px;word-spacing:0px;fill:#000000;fill-opacity:0.66850829;stroke:none;filter:url(#filter5837)"
       transform="matrix(0.26458333,0,0,0.26458333,-41.621231,-489.19889)"><flowRegion
         style="fill:#000000;fill-opacity:0.66850829;"
         id="flowRegion5811"><rect
           style="fill:#000000;fill-opacity:0.66850829;"
           id="rect5809"
           width="403.74829"
           height="28.423281"
           x="174.64285"
           y="1905.0197" /></flowRegion><flowPara
         id="flowPara5813"
         style="font-style:normal;font-variant:normal;font-weight:normal;font-stretch:normal;font-family:'Shorelines Script Bold';-inkscape-font-specification:'Shorelines Script Bold, ';fill:#000000;fill-opacity:0.66850829;">(elvann)</flowPara></flowRoot>    <path
       inkscape:export-ydpi="300"
       inkscape:export-xdpi="300"
       inkscape:connector-curvature="0"
       id="path5216"
       d="m 11.875207,5.47648 c 1.330327,0.0734 3.862022,2.0705 4.79177,3.78462 1.358227,2.50786 3.417243,3.13552 4.590997,2.82116 1.192546,-0.31942 3.255142,-1.25223 3.082006,0.59025 -0.792103,1.42302 -8.420338,14.93643 -8.420338,14.93643 0,0 -0.571239,-0.33736 -0.658439,-0.62752 -0.178654,-0.59448 0.417359,-1.8148 0.417359,-1.8148 0,0 -2.271339,-4.49844 -3.25302,-9.19819 C 11.811987,13.03106 12.03769,10.26936 12.135873,7.99254 12.192263,6.68491 10.902517,5.98717 11.277415,5.64766 11.423568,5.5153 11.628856,5.46289 11.875207,5.47648 Z m 2.177221,4.45765 c -0.02161,1.14491 -0.312957,4.4731 -0.05951,6.22203 0.499231,3.44493 2.670348,6.3736 3.151315,6.61705 0.286148,-0.4862 5.328697,-8.90073 5.990372,-9.97166 -0.04433,-0.35721 -1.633895,0.7646 -3.529886,0.79116 -1.89599,0.0266 -4.681631,-2.98008 -5.552287,-3.65858 z"
       style="opacity:1;fill:#ffffff;fill-opacity:1;stroke:none;stroke-width:0.19377835;stroke-linecap:round;stroke-linejoin:miter;stroke-miterlimit:4;stroke-dasharray:none;stroke-opacity:1"
       inkscape:export-filename="C:\Users\avdow\Desktop\Stream Ovelays\Harps\discordicon.png" />
    <flowRoot
       transform="matrix(0.26458333,0,0,0.26458333,-41.621231,-489.19889)"
       style="font-style:normal;font-weight:normal;font-size:40px;line-height:25px;font-family:sans-serif;letter-spacing:0px;word-spacing:0px;fill:#ffffff;fill-opacity:1;stroke:none;"
       id="flowRoot5227"
       xml:space="preserve"
       inkscape:export-xdpi="300"
       inkscape:export-ydpi="300"><flowRegion
         id="flowRegion5222"
         style="fill:#ffffff;"><rect
           y="1905.0197"
           x="174.64285"
           height="28.423281"
           width="403.74829"
           id="rect5220"
           style="fill:#ffffff;" /></flowRegion><flowPara
         style="font-style:normal;font-variant:normal;font-weight:normal;font-stretch:normal;font-family:'Shorelines Script Bold';-inkscape-font-specification:'Shorelines Script Bold, ';fill:#ffffff;"
         id="flowPara5225">(elvann)</flowPara></flowRoot>  </g>
</svg>
